<mxfile host="Electron" modified="2023-06-09T15:24:23.721Z" agent="Mozilla/5.0 (Windows NT 10.0; Win64; x64) AppleWebKit/537.36 (KHTML, like Gecko) draw.io/21.2.8 Chrome/112.0.5615.165 Electron/24.2.0 Safari/537.36" etag="eoU2VsxCSrlceIF9_YZ7" version="21.2.8" type="device">
  <diagram name="Page-1" id="bMyiwrpb31utsqq8SisX">
    <mxGraphModel dx="1418" dy="828" grid="1" gridSize="10" guides="1" tooltips="1" connect="1" arrows="1" fold="1" page="1" pageScale="1" pageWidth="1169" pageHeight="827" math="0" shadow="0">
      <root>
        <mxCell id="0" />
        <mxCell id="1" parent="0" />
        <object label="" fill="&quot;#AB7C94&quot;" id="lxQpbXjSUi8xi0s-LVYQ-1">
          <mxCell style="shape=image;aspect=fixed;image=data:image/svg+xml,PD94bWwgdmVyc2lvbj0iMS4wIiBlbmNvZGluZz0iVVRGLTgiIHN0YW5kYWxvbmU9Im5vIj8+DQo8IS0tIEdlbmVyYXRvcjogQWRvYmUgSWxsdXN0cmF0b3IgMjYuNS4wLCBTVkcgRXhwb3J0IFBsdWctSW4gLiBTVkcgVmVyc2lvbjogNi4wMCBCdWlsZCAwKSAgLS0+DQo8c3ZnIHZlcnNpb249IjEuMSIgaWQ9IkxheWVyXzEiIHg9IjBweCIgeT0iMHB4IiB2aWV3Qm94PSIwIDAgNjUwLjUgMzY5Ljg5OTk5IiB4bWw6c3BhY2U9InByZXNlcnZlIiB3aWR0aD0iNjUwLjUiIGhlaWdodD0iMzY5Ljg5OTk5IiB4bWxucz0iaHR0cDovL3d3dy53My5vcmcvMjAwMC9zdmciIHhtbG5zOnN2Zz0iaHR0cDovL3d3dy53My5vcmcvMjAwMC9zdmciPjxkZWZzIGlkPSJkZWZzNyIvPg0KPHBhdGggZD0ibSA2NDguNCwyMzIuNiAtMi41LC02LjQgLTQuMSwtOS42IC0xLjQsLTQgLTUsLTEwLjEgLTUuNCwtOC43IC01LjMsLTcuNiAtNS41LC03LjYgLTksLTkuNiAtMTEuNywtMTIuMiAtNi40LC02LjYgLTEwLC03LjYgLTguOCwtNiAtMTAuNywtNi43IC05LjMsLTUuOSAtOS44LC00LjYgLTEzLjEsLTQuNyAtMTIuNSwtMy40IC0xMC43LC0yLjMgLTE2LjYsLTIuOCAtMTEsLTEuMSAtMTAuMSwtMC4yIC02LjgsMC4xIC01LjksMC4zIC01LjMsMS4yIC00LjQsMC43IGggLTMuNCBsIC0wLjMsLTEgMS4yLC0wLjEgMS40LC0wLjMgMC42LC0wLjggMy43LC0yLjEgNC45LC0yLjIgMTAuMSwtNC41IDE0LjMsLTYuNCAxMC4xLC00LjMgdiAtMS40IGwgLTAuMiwtMC45IC0wLjQsLTAuOCAtMC44LC0wLjYgLTEuMywtMC4yIC0xNy4zLDcgLTE2LjQsNy41IC04LjEsMy4xIC0zLjQsMC4zIC04LjIsLTAuOSAtNy4yLDAuNCAtNi4xLDEgLTYuNywxLjggLTUuOCwyLjQgLTUsMi45IC0zLjcsMyAtMi45LDAuNiAtMTAuMiwxLjQgLTEyLjUsMi40IC0xMy4yLDIuNiAtMjEuNCw0IGMgMCwwIC0xMC42LDIuOCAtMTEuNCwyLjggbCAtMTIuMSwyLjcgLTcuNCwwLjcgLTIuNywtMS42IC0yLjUsLTEuMyAtMS41LC0xLjMgLTEsLTEuMiAtMy40LC0zLjggLTMuOCwtNSAtMSwtMy40IC0yLjUsLTcgLTAuNCwtNS43IC0xLjMsLTguOCAtMC42LC02LjUgLTEuOCwtNy42IC0yLjMsLTguMyAtMi43LC02LjYgLTUuMywtOCAtNi40LC05LjQgLTYuMywtNi45IC0xMC4yLC04LjkgLTkuNCwtNi4xIC05LjIsLTQuMyAtMTEsLTQuNSBMIDIxMC4zLDYuOSAxOTkuNCw1IDE4OSwzLjYgMTgwLjQsMy4zIDE3MS43LDMuMSAxNjMuNCwyLjIgMTU3LDAuMiAxNTMuNSwwIGwgMS45LDIuMSAyLjIsNC4xIDEuMyw2LjYgMi4yLDYuNiA0LjEsNi4yIDcuNCw4IDgsOCAxMS43LDkuNyAxMy4xLDguNiAxMi45LDcuMiAxNy40LDcuOCAxNC40LDUuOSAxNy4zLDguOCA4LjgsNi44IDguMiw4LjggNS41LDcuNyA0LDUuOSA0LjMsNi4zIDEuNSwyIDEuOSwxLjUgMC45LDAuNCAwLjgsMC40IDIuMiwxLjMgLTIuNCwwLjkgLTcuMiwzLjMgLTEyLDQuOSAtMTQuMSw2LjQgLTExLjcsNS4xIC0xNC44LDYgLTAuOCwtMi4xIC0xLC0yLjkgMS4zLC0xLjQgMC40LC0yLjUgMS41LDAuMSA0LjEsLTEuNSA0LjksLTIuNyA0LjgsLTMuMiA4LjUsLTUuMSA3LjMsLTQuNCA0LjQsLTMuMiAtMS4yLC0wLjMgLTMsLTAuNiAtNC43LC0wLjcgLTUuOCwwLjEgLTUuOCwwLjkgLTUuNiwxLjkgLTUuMSwyLjQgLTQuNCwzLjcgLTIuNiwzLjcgLTEuNSwyLjYgLTAuOCw0LjYgMC4zLDMgMS4yLDIuNiAwLjgsMi41IDAuOSwyLjQgLTAuMywxLjQgLTEwLjksNSAtMTUuMSw2LjggLTE4LjQsMTAuNCAtMTIsNiAtMTUuNyw3LjkgLTIuOSwwLjYgLTMuNCwtMSAtOS42LC01LjggLTYuNSwtMy44IC00LjYsLTkuNSAtMS44LC0zLjYgLTIuOCwtNS43IC0yLjcsLTUuOCAtNC43LC05LjQgLTIuNiwtNy41IC0zLjcsLTcuNCAtNS4yLC03LjcgLTUuNSwtNiAtOC44LC04IC04LjksLTYuNiBMIDg1LDEwMS4zIDczLjksOTYgNjAuNCw5MS42IDUwLjYsODkuNCAzNi43LDg4LjIgMjQuOSw4Ny4xIGwgLTEwLC0wLjYgLTUuNywtMC45IC00LC0xIC01LjIsLTAuNCAxLjYsMS42IDMuNywzLjcgMy44LDUuOSA0LDYuNSA0LjksNyA3LjIsNy41IDEwLjksMTEuMSA3LjYsNi4zIDEwLjMsNy4xIDEzLjUsNi4yIDguNyw0LjEgOC41LDIuMyA4LjIsMi43IC0yLjQsMC42IC04LjcsMS41IC02LjksMi4xIC01LjYsMi40IC02LjYsMy4xIC01LjgsMy4zIC01LjEsMy45IC00LjIsMy4zIDMuNCwtMC40IDQuNSwtMC4yIGggNi40IGwgOS4xLDAuNCAxMC40LDAuNSA5LjEsMC40IDEwLjgsLTAuMSA4LjEsLTAuMSA3LjIsMC40IDEwLjQsMC43IDIuMiwwLjUgMy41LDEuOCA0LjYsMi43IDQuOSwzIDIuNCwyLjIgMywyLjUgMy40LDMuMSAzLjMsMiAzLjQsMS42IDIuNiwwLjcgaCAzLjIgbCAwLjIsMS45IC00LjQsNy40IC01LjUsOC43IC00LjEsOC45IC01LjUsMTMuNyAtMy44LDEwLjQgLTMsMTAuOCAtMi42LDguOCAtMS4xLDAuNiAtMi4yLC0wLjIgLTIuOSwwLjMgLTMuNywwLjQgLTIuNCwwLjcgLTIuOSwwLjIgaCAtMS45IGwgLTAuMywtMSAtMC4yLC0xIDAuMSwtMS41IC0wLjYsLTAuNSAtMS4zLDAuMSAtMS4xLDAuMiAtMC42LDEuMSAtMC44LDAuMiAtMi4zLC0wLjEgLTEuOCwwLjYgLTEuOSwxIC0xLjQsMS4zIC0xLjYsMS44IC0wLjgsMS42IC0wLjUsMS44IDAuNSwxLjkgMS4yLDIgMS40LDEuNyAyLjMsMS4zIDEuNywwLjQgMS43LC0wLjEgMS45LC0wLjQgMS44LC0xIDAuOSwtMS40IDAuNSwtMC41IDEuOCwtMC40IDEuMywtMC4xIDEuMSwtMS4zIDAuMiwtMS45IC0wLjMsLTEuMyAtMS4yLC0xIDEuNSwtMC4yIDAuNCwtMC4xIDEuOCwtMC4xIDIuMSwtMC4yIDEuNSwtMC40IDEuNCwtMC40IDAuNywwLjQgMC4yLDEuNiAtMC44LDEuNiAwLjQsMS42IC0xLDAuMiAtMSwxLjEgLTAuMywyIDAuNiwxLjcgMS4yLDAuOCAxLjQsLTAuMSB2IDEuNCBsIDAuOCwxLjEgMC44LDAuMiAwLjgsLTAuMyAwLjEsMS41IDAuMSwxLjcgLTAuMywxLjggLTAuOSwxIC0xLjksMi4yIC0zLjMsNCAtMC44LDAuMiAtMS40LC0wLjIgLTEuNCwwLjQgLTAuNSwwLjcgdiAxLjUgbCAtMS4xLDAuNSAtMC41LDEuNCAtMC42LDEuMSAtMC45LDEgLTAuNiwxLjEgLTAuMywxLjEgMC4yLDEuOSAxLDIuMiAyLDEuNSAyLjksMS4xIDIuOCwwLjUgMi42LC0wLjQgMS40LC0wLjggMS4yLC0wLjcgMS40LC0xLjIgMC40LDEuMiAtMC4zLDEuNSAtMC40LDEuNSAtMC4xLDEuMiAwLjYsMSAxLjIsMC4zIDAuOCwwLjEgMC43LDAuNCAwLjEsMS4yIC0wLjYsMS4xIC0xLjMsMS4yIC0xLjIsMC41IC0wLjUsMSAtMC42LC0wLjUgViAzMjIgbCAtMC43LC0wLjYgLTAuOCwtMC42IC0xLjIsLTAuMSAtMSwwLjUgLTAuNywwLjkgLTAuMywwLjYgLTEuMiwwLjQgLTEuNCwxLjMgLTAuOSwxIC0wLjMsMiAwLjEsMS41IDAuOSwxLjUgMS4yLDAuNyAxLjIsMC4xIDAuNiwxLjMgMS4zLDAuNiAxLjUsMC41IDEuNCwtMC4yIHYgMC43IGwgMC4yLDEuNSAwLjcsMS44IDAuOCwxLjcgMS40LDEuNCAxLjIsMC41IGggMiBsIC0wLjQsMS42IHYgMS42IGwgMC41LDEuOCAxLDEuMSAxLjgsMC43IDEuOSwwLjQgMS44LDAuMSAxLjQsLTAuMSAxLjQsLTAuNiAxLjIsLTEuMSAwLjEsLTEuNCAtMC44LC0xIC0wLjcsLTAuNiAtMS4xLC0xIDAuMiwtMC45IDAuMSwtMSAxLjMsMC41IDEuMywwLjQgMSwwLjUgaCAyLjEgbCAxLjQsLTAuNCAwLjksLTAuNCAwLjksLTEuMiAwLjEsMC45IDAuMiwxLjQgLTAuMSwxLjQgLTEuMywxLjQgLTEuOCwxLjIgLTEuOCwwLjggLTEsMC4yIC0xLjIsMC43IC0wLjcsMS41IC0wLjIsMS44IDAuNSwxLjYgMS4zLDAuOCAxLjUsMC4yIDEuMywtMC4zIDEuMiwtMC4yIDAuNiwtMS4xIHYgLTEuNSAtMSBsIDAuOCwtMi40IDEsLTAuNSAxLjMsLTEuMyAwLjgsLTEgMS4xLC0wLjYgMC44LC0wLjMgMC42LDAuNiAwLjcsMC44IDAuNSwwLjggMC40LDEuMyAtMC4yLDEuMiAtMC40LDAuOCAtMC4xLDEuMSAwLjMsMS4yIDAuOCwwLjUgMC45LC0wLjIgMC4xLDEuMiAtMC4yLDEuMyAtMC45LDEuMSAtMC43LDEgMC4yLDEuMyAwLjgsMC43IDEuMywwLjEgMS41LC0wLjUgMC43LC0wLjMgMC4zLC0xLjIgLTAuMywtMC45IHYgLTAuNyBsIDAuNSwtMC4zIGggMC42IGwgMC41LDAuNyAwLjksMC42IDEuMSwtMC4xIDEuMywtMC43IDEuMSwtMS40IDAuMywtMS41IC0wLjUsLTEgLTAuNiwtMC41IC0wLjcsLTAuMiAtMC45LDAuMyAtMC40LDAuNSAtMC43LDAuMyBoIC0wLjggbCAtMC43LC0wLjEgaCAtMC42IGwgLTAuNSwtMC4xIDAuMiwtMC4zIDAuMywtMC43IC0wLjEsLTEuMiAtMC41LC0wLjYgLTAuOCwtMC4xIC0wLjksMC4xIC0wLjQsLTAuNiB2IC0wLjcgbCAwLjgsLTAuMyAwLjQsLTAuNCAwLjMsLTAuOCAwLjksMC4yIDAuNywtMC4xIDAuNiwtMC42IDAuMywwLjggMC4yLDAuNiAwLjEsMC43IDAuOCwwLjUgMC43LDAuNCAwLjksMC4xIDEsLTAuNCAwLjYsLTAuNCAxLjMsLTAuNCAwLjYsLTAuMSAwLjYsMC4yIDAuNCwwLjYgMS4xLDAuNSAwLjksLTAuMyAwLjgsLTAuOCAwLjYsLTEuMSAwLjMsLTEgLTAuMiwtMS40IC0wLjQsLTEuMSAtMC41LC0wLjQgLTEuMSwtMC4xIGggLTAuOSBsIC0wLjcsMC4zIC0wLjYsMC42IC0wLjgsLTAuMiAtMS4yLC0wLjYgLTAuOCwwLjMgLTAuOSwtMC44IC0wLjgsLTAuMiAtMS4xLC0wLjEgaCAtMC45IGwgLTEuNCwwLjQgLTEuNywwLjMgLTEuMSwtMC40IC0wLjYsLTEgMC4yLC0yLjMgMC4zLC0xLjYgaCAwLjMgbCAwLjgsLTAuMiAwLjksLTEgMC4xLC0wLjcgMC4xLC0wLjUgMC42LC0wLjcgMC44LDAuMiAxLjEsMC4yIDAuOCwwLjUgMC40LDAuOSAxLDAuOCAwLjksMC4xIDAuOSwtMC4zIDAuNSwtMC44IDAuNiwtMSAwLjYsLTAuNiAwLjcsLTAuOCB2IC0xLjcgbCAtMC40LC0xLjQgLTEuMiwtMC40IC0xLjQsMC4xIC0xLjEsMC40IDAuMiwtMC45IHYgLTEgbCAtMC43LC0wLjYgLTEsLTAuMyAwLjMsLTEuMSAtMC40LC0xLjQgLTEuMSwtMC4xIC0wLjksMC40IC0wLjMsMS40IC0wLjksMSAtMC44LC0xIC0xLC0wLjYgLTAuOSwtMC4xIC0xLjMsMC40IHYgLTAuNSBsIC0wLjQsLTAuNyAtMC45LC0wLjYgLTEuNCwwLjYgLTAuNywxIC0wLjUsMSAtMC40LC0wLjEgLTEsLTAuOSAtMC44LC0xLjIgLTAuOSwtMSAtMC4xLC0wLjkgMC40LC0wLjggaCAwLjcgbCAxLDAuMSAxLjMsLTAuMyAwLjcsLTEuMSAtMC4zLC0wLjkgdiAtMS4xIGwgMC42LC0wLjkgMS4zLC0wLjIgMC45LDAuNiAxLjYsMC42IDEuMSwtMC40IDAuNSwtMC45IHYgLTEuNCBsIC0wLjgsLTEgLTEuOSwtMSAwLjcsMC4yIGggMS43IGwgMC45LC0xLjUgMC4yLC0yLjMgLTAuMywtMi42IC0wLjMsLTEuOCAtMC42LC0xLjcgLTAuOCwtMSAtMC44LC0xLjEgLTEuMywtMC42IC0xLjUsMC4yIC0wLjQsMC4xIC0xLjEsMC44IC0wLjEsMS41IC0wLjMsLTAuNSAtMC43LC0wLjQgLTAuOCwwLjIgLTAuNywxIC0wLjMsMS42IDAuMSwxLjggLTEuMywwLjkgLTIuNCwwLjkgLTIuMSwwLjYgLTAuNiwtMC41IC0xLjUsLTAuMiAtMS40LDAuNSAwLjQsLTAuNiAtMC4yLC0xIC0wLjcsLTAuNiBoIC0xLjIgbCAtMS40LDAuMSAtMS44LC0yLjEgaCAwLjkgbCAxLjIsLTAuMyAxLC0wLjUgMC40LC0wLjggdiAtMS4xIGwgMS4xLDAuMyAyLDAuMSAxLjYsLTAuNyAwLjQsLTEuMyAtMC45LC0xLjUgLTAuNSwtMS4yIDAuNSwtMi41IDAuMiwtMiAwLjgsMC43IDEuMiwxLjMgMS44LC0wLjMgMC4zLC0yLjQgLTAuMiwtMS41IGggMC43IGwgMS43LC0wLjQgMS40LC0wLjkgMiwtMS45IDEuNCwtMi42IDAuNSwtMi4yIC0wLjEsLTIuNiAtMC45LC0yLjIgLTEuMSwtMi4zIC0xLjUsLTEuMiAtMi4yLC0wLjUgLTIuNCwwLjIgLTEuNywxLjYgLTEuMSwxLjYgLTEuMSwwLjQgLTEuNiwwLjEgLTEsMC44IC0xLjQsLTAuNSAtMy4xLC0xLjIgMC4xLC0xLjYgLTAuMiwtMS41IC0wLjksLTEuNSAtMS4yLC0xLjIgLTEuMywtMC41IC0wLjMsLTIuNSAxLjUsLTEuNiAwLjMsLTMuMiAxLjMsLTUuNCAxLjYsLTUuNiAzLjYsLTExLjMgMy42LC04LjYgNC43LC05LjIgMy40LC03LjUgNS42LC04LjkgNC43LC04LjggMi40LC0xLjEgMy44LC0yIDYuOSwtMy4zIDEwLjIsLTUuNSAxMS42LC02LjQgMTYuNiwtOC4zIDE1LC03LjIgOC44LC0zLjYgMC4xLDIuOCAtMS43LDMuMSAtNS41LDEuOSAtNi4xLDMuNiAtOCw1LjIgLTUuMyw1LjUgLTQuOSw2IC01LjYsNy43IC0zLjksNy4xIC0yLjQsOC41IC0xLjYsOS40IC0xLjEsMTQuOSAwLjksMTAuNSAxLjksOC4zIDIuNCw4LjcgMy42LDExLjcgNC45LDguOCA1LjIsOC44IDUuNiw3LjcgNi43LDguOCA1LDYuMSA2LjYsNi4xIDYuNiw4LjMgNS4yLDguNiA0LjQsMTEuNiA0LjUsMTAuNiA2LjksNy40IDIsLTUgNS4zLC0xMS42IDQuOSwtOS43IDQuNSwtMTAuMiA1LC0xMC44IDQuNSwtMTEuMyAzLjEsLTguNSAzLjQsLTEyLjEgMy41LC0xMy4yIDIsLTkuNiB2IC05LjcgbCAtMC45LC0xMS4xIC0xLjMsLTExLjEgLTEuOSwtMTEuNiAtMi40LC04LjggLTMuNCwtOC4zIC00LjIsLTguMSAtNS4zLC03LjcgLTQuOSwtNi4zIC02LjYsLTYuMyAtNi40LC00LjkgLTcuMiwtNC4yIC04LjksLTQuNCAtNC45LC0yLjQgMS4zLC0yLjggMS44LC0wLjYgMTYuMiwtOC4xIDE4LjYsLTguMiA5LjMsLTMuOCA5LjQsLTMuOCA1LjQsLTEuNSA1LjgsLTEuOSA0LjksLTEuNyAxNC44LC0zLjcgMTMuNCwtMy4yIDI1LjIsLTQuOCA4LjcsLTEuNCAxMSwtMS44IC0yLjQsMi41IC0xLjcsMi42IC0xLjksMS42IC0xLjcsMiAtMC40LDAuOCAtMS40LDMuMiAtMC45LDMgLTAuNywyLjkgLTAuOSwyLjggLTAuNSwyLjIgLTEuNiwtMC43IC0yLC0wLjQgLTIuMiwtMC43IC0xLjQsLTAuNiAwLjMsLTEuMyBWIDEzNCBsIC0wLjUsLTEuNiAtMS4yLC0xIC0xLjIsLTAuMSAtMS43LDAuMSAtMS40LDAuNiAtMS40LDEuMSAtMSwtMC4yIC0wLjcsMC4zIC0wLjMsMC43IDAuMiwwLjkgMC44LDAuNSAtMC4yLDEuMyAwLjIsMS42IDAuNywxIDAuOSwwLjUgMS41LDAuMyAxLjIsLTAuMiAwLjcsMC44IDEuMSwtMC4zIDAuOCwtMC44IDAuNCwtMS4zIDEuMywwLjEgMiwwLjggMi4xLDAuNiAyLDEuMSAwLjUsMC42IC0wLjIsMy40IDAuMiwzLjUgdiAzLjUgbCAtMC4zLDAuNyAtMi4xLDAuNiAtMi42LDEuMSAtMi41LDAuOSAtMS43LDEgLTAuNywwLjYgLTEuNiwtMC4zIC0wLjksLTAuNyAtMS41LC0wLjIgLTEuMSwtMC42IC0xLjIsLTAuNSAtMSwwLjUgLTAuMiwxLjYgMS4xLDAuOSAtMC4yLDEuMyAtMC4xLDEuMyAwLjQsMC43IDAuOSwwLjkgMC44LDAuMSAwLjUsMS4yIDEsMC42IDEsMC4yIDAuOSwwLjIgMC42LC0wLjYgLTAuNSwtMS43IC0wLjEsLTEuMyAwLjcsLTAuOCAyLjQsLTEuMyAyLjYsLTEuMiAyLjgsLTEgMi41LC0wLjUgaCAwLjUgbCAwLjQsMyAwLjYsMy41IDEsMy42IDAuOSwzIDAuMywzLjQgMC4xLDEuOSAtMC43LDAuMiAtMi4yLC0wLjIgLTIuMiwwLjUgLTEuOCwwLjUgLTIuNCwtMC4yIGggLTEuNyBsIC0wLjgsLTEuMSAtMS4xLC0xIC0xLjUsMC4xIC0wLjQsMS4yIC0xLDAuNSAtMC44LC0wLjMgLTAuNSwtMS4yIC0xLjIsLTAuNSBoIC0xLjUgbCAtMSwwLjYgLTEsMS40IC0wLjMsMi4zIDAuMiwyLjcgMC42LDIuNyAxLjMsMi42IDEuNiwyLjIgMS42LDAuNyAyLjEsMC4zIGggMS42IGwgMS41LDEuNCAwLjYsLTAuMyB2IC0wLjggbCAtMC40LC0xLjEgMS4xLC0wLjIgMS41LDAuNSAtMC40LDEuMSAwLjQsMS4xIDEsMC41IDEuMSwwLjMgaCAwLjUgbCAwLjUsMi4zIDAuMywyLjQgdiAyLjUgMS45IGwgLTEuNCwwLjIgLTEuNywwLjUgLTAuNywwLjggLTAuMiwxLjIgLTAuOSwtMC4yIC0xLjEsMC4yIC0wLjUsLTAuNCAtMC4zLC0xLjEgLTAuNiwtMC40IC0xLjQsLTAuMiBoIC0xLjEgbCAtMS41LDAuMyAtMC45LDAuMSAtMC44LC0xLjQgLTEuMywtMC44IC0xLjcsLTAuNCAtMi45LDAuMSAtMS44LDEuMSAtMS40LDEuMyAtMC45LDEuOCAtMC40LDIuMSAwLjYsMi4yIDEuMSwxIDEuNiwwLjggMC44LDEuNyAxLjEsMS40IDEuNCwwLjggMi40LDAuNSAyLjMsLTAuMyAxLjQsLTEuMiAwLjUsMS45IDAuOCwyLjkgMC41LDIuNCB2IDIuOCBsIC0wLjMsMS4yIC0yLDIgLTEuNiwxLjUgLTEuMywwLjMgLTEuMywxLjIgLTEuMiwxIC0yLjIsMC40IC0xLjUsLTAuNSAtMC4zLC0xLjUgMC4yLC0yIC0wLjcsLTIuNCAtMS42LC0xLjcgLTIuNywtMS4xIC0yLjQsMC4xIC0xLjYsMS4xIC0xLjcsMiAtMC41LDIuNSAwLjUsMS45IDEuMywxLjkgMS45LDAuOCAyLjYsLTAuMyAxLjMsLTAuNiAwLjUsMC44IC0xLjcsMC44IC0wLjcsMS4zIC0wLjQsMi4xIHYgMS44IGwgMC4zLDEuNCAtMS43LC0wLjIgLTEuNiwwLjcgLTEuMywxLjMgLTAuNSwxLjIgLTAuMSwxLjMgLTEuOCwtMC41IC0xLjksLTAuMSAtMS42LDAuNiAtMC43LDEuMSAtMC41LDEuNCBoIC0xIGwgLTEuMSwtMC4zIC0wLjMsLTAuOCAtMS4xLC0wLjQgLTEuMiwwLjQgLTAuNywxIC0wLjIsMS4zIDAuMiwxLjUgMC45LDEuMSAxLjIsMC4yIDEuMSwtMC41IDEuMiwtMC40IDEsMC4yIDAuMywxLjEgMC44LDEuMiAxLjQsMC41IGggMS4yIGwgLTAuMiwyLjEgLTAuNCwyLjEgLTEuMSwxLjcgLTAuMywwLjkgLTAuNiwwLjcgLTAuOSwtMC4zIC0xLDAuMSAtMC41LDAuOSAtMC40LDEuMiAwLjQsMS4xIDAuOSwwLjUgMS42LC0wLjIgMC4xLDEuMiAtMC43LDAuNCAtMC4zLDAuOSAwLjMsMS4yIDAuOCwwLjcgMS4xLDAuMiAxLjIsLTAuMyAwLjUsLTEuMSAtMC40LC0xLjMgLTAuNywtMC45IC0wLjQsLTAuNCB2IC0wLjkgbCAwLjMsLTEuMiAwLjUsLTEuNSAwLjEsLTEgMC43LC0xLjUgMSwtMS4yIDAuNCwtMi4yIC0wLjIsLTIgMSwwLjEgMS40LC0wLjQgMC42LDEuNSAwLjIsMS44IDAuOCwxLjEgLTAuMSwxLjYgLTAuMSwxLjcgMC44LDAuNSAxLjEsLTAuNSAwLjMsLTEuMyAtMC4xLC0xLjIgMS4xLC0wLjMgMC45LC0xLjIgLTAuMSwtMS4yIC0wLjcsLTAuMSAtMS4yLDAuNyAtMSwtMC41IC0wLjYsLTEuMSAtMC41LC0yLjMgMC42LC0xLjEgMC40LC0xLjQgdiAtMS4yIGwgMS4zLDAuNiAxLjIsLTAuMSAxLjIsLTAuNCAxLjYsLTEuNCAwLjUsLTEuNiAwLjcsLTAuOCAxLjIsMC40IDEuMiwxIC0wLjUsMC45IC0xLjIsMC4xIC0wLjYsMS40IDAuNSwxIC0wLjUsMS42IHYgMS42IGwgMS4xLDEuNCAxLjEsMSAxLjksMC41IGggMiBsIDEuNywtMC43IDEuNCwtMS41IDAuNiwtMi4zIC0wLjEsLTIuMSAtMC45LC0xLjUgLTAuOSwtMC40IDAuMSwtMSAtMC4xLC0xLjIgLTAuOSwtMSAtMS40LC0wLjEgLTEuMSwwLjUgLTEuMSwwLjQgLTEuNCwtMC42IC0xLjQsLTAuOCAtMS4xLC0wLjcgMS4xLC0wLjEgMS44LC0wLjQgMS4xLC0wLjcgMSwtMS4xIDAuNCwtMS40IC0wLjMsLTEuNSAtMC42LC0wLjQgaCAxLjQgbCAxLC0wLjQgMC4xLC0wLjkgdiAtMC42IGwgMSwtMC4zIDEuMiwwLjIgMS4yLC0wLjIgMC45LDAuMSAwLjIsMS4yIDAuOSwwLjkgMC42LDAuMSB2IDEuMyBsIC0wLjIsMS4yIC0xLjMsMC44IC0wLjgsMS41IDAuMSwyIDAuOCwxLjYgMS4xLDAuOSAyLDAuOCAyLjcsMC40IDIsLTAuMyAxLjQsLTEuMSAxLC0xLjYgMC4zLC0xLjcgLTAuMSwtMS4zIC0wLjQsLTAuOSAxLjksLTAuMiAxLjQsLTAuNyAxLjEsLTEuNyAwLjIsLTEuOSAtMC42LC0yLjEgLTEsLTEuMyAtMC40LC0xLjUgLTEuMiwtMC40IC0xLjIsMC4xIC0xLjQsMC4xIC0wLjQsLTEuNCAtMC44LC0wLjggMC40LC0xLjYgLTAuMywtMiAwLjQsLTAuOSAwLjEsLTAuNiAwLjIsLTEuMyAtMC4zLC0wLjkgLTEuNCwtMC4yIC0wLjgsMC4zIHYgLTEuMSBsIDAuOSwtMSAwLjYsLTEuMyAwLjksLTAuOCAxLjEsLTAuMyBoIDEuNCBsIDAuNSwwLjkgLTAuMSwwLjkgLTAuOCwxLjUgLTAuNiwxLjEgdiAxLjEgbCAwLjMsMC42IDAuNywwLjIgMC45LDAuOCAwLjcsMS40IDEuNSwxLjQgMS41LDAuNiAyLjQsLTAuMSAyLjEsLTAuOCAxLjUsLTEgMC44LC0xLjggMC40LC0yLjQgLTAuNSwtMi42IC0xLC0xLjUgLTIsLTAuOCAtMS45LDAuMSAtMC44LC0wLjMgdiAtMS40IGwgLTAuOSwtMC40IC0xLjEsMC43IC0wLjYsMC45IC0xLjQsLTAuMSAtMC40LC0xIDAuMywtMC43IDAuNSwtMC42IDAuNywtMC40IDAuNCwtMC45IDAuMSwtMC43IDAuNywwLjggMC41LDAuOCAxLjQsMC4yIDEuNCwwLjEgMC41LDAuOCAxLjIsMC42IDAuNSwwLjggMSwwLjIgMC45LC0wLjQgdiAtMSBsIC0wLjQsLTEgMS4yLDAuMyAxLjYsMC4yIDEuNSwtMC4yIDAuOSwtMC43IHYgLTEuNSBsIC0wLjQsLTEuNSAtMC43LC0xLjMgMC44LC0xIDAuMywtMSAxLjEsLTAuNSAwLjQsLTEuMyAtMC40LC0xLjIgLTAuOSwtMC41IC0xLjUsMC4xIC0xLDAuNiAtMC41LDAuNyAtMC45LDAuNSAtMC42LDEgLTEuNCwwLjIgLTEuNywtMC41IC0wLjUsLTEuMiAtMS41LC0wLjEgLTEsLTAuOSAtMC4yLC0xLjQgMC42LC0wLjYgMC40LDAuOCAxLjEsMC4yIDEuMywwLjggMC44LC0wLjkgMC4xLC0wLjkgMSwtMC4yIDEuNSwtMC43IDEsLTEuNCB2IC0yIGwgLTAuNiwtMS45IC0xLjMsLTEuMyAtMS4yLC0xIDAuMSwtMC44IDIuNCwtMC41IDMuMiwtMS40IDIuMSwtMSAxLjQsMC43IDAuMywxLjMgMS4xLDAuOCAxLjQsLTAuNiAxLjEsLTEuMyAxLC0xLjIgdiAtMS41IGwgLTAuOCwtMC4yIC0xLjIsMC4zIC0xLC0wLjMgMC40LC0xLjkgLTAuNiwtMS44IC0xLC0wLjUgLTEuNywwLjIgLTEuMiwwLjkgLTAuMiwxLjQgLTAuMSwxLjQgLTEuOSwxLjMgLTIuNiwxLjQgLTEuNywwLjUgLTAuNiwtMC43IC0wLjYsLTAuMiBoIC0wLjcgbCAtMC41LC0wLjEgLTAuMywtMSAwLjIsLTIuOSAwLjEsLTIuMSAwLjEsLTEuMyAxLjIsLTAuNSAxLjksLTEuMSAxLjEsLTEuMiAyLjEsLTAuNSAxLjcsMC41IGggMi4xIGwgMiwtMC4zIDEuMiwtMi4yIDAuMiwtMS40IDEuOCwtMS4yIDAuNywtMi4xIFYgMTY3IGwgLTAuNywtMi4yIC0xLjYsLTEuNCAtMS44LC0wLjkgLTIsLTAuNCAtMS44LDAuNSAtMS4yLDEuNCAtMC40LDEuNSAtMSwxLjIgLTAuNywxLjMgMC4xLDEuNiAtMS4yLDAuNCAtMC44LDEuMyAtMC4xLDEgLTEuOSwtMC4zIC0xLjEsLTAuMyAtMC44LC0xLjYgLTAuNSwtMy45IC0wLjYsLTIuNCAtMC41LC0yLjcgMS42LC0xLjEgMS4yLC0wLjkgMS4yLDAuNSBoIDEuNiBsIDIuMSwtMC4zIDEuMywtMS4yIDEuNCwtMS4yIDAuNSwtMS42IC0wLjIsLTIuNyAtMS4yLC0yLjEgLTEuOSwtMiAtMS4xLC0wLjUgMi40LDAuMiAxLjcsMC4yIDAuOSwwLjggMC42LDEuMSAwLjQsMS42IDEsMC42IDEuNCwtMC4xIDAuOSwtMC42IDAuNSwtMS4zIC0wLjQsLTEuNCBoIDEuMiBsIDAuNCwtMC43IHYgLTEgbCAtMC42LC0xLjEgMC4xLC0wLjkgMC40LC0wLjcgMC4xLC0xLjUgLTAuNiwtMC41IC0xLjMsLTAuNCAtMS4xLDAuNSAtMC42LDEgLTAuNSwxIC0wLjksMC44IC0yLjEsMC4zIGggLTIuNSBsIC00LjQsLTAuNCAtMi42LC0wLjQgLTIuNCwwLjEgLTAuNywtMC41IDAuMSwtMy4yIDAuMSwtMi45IDEuMSwtMy42IDIuNywtNy42IDAuNCwtMS4yIDEuNCwtMiAxLjMsLTEuMiAxLjksLTIuMyAzLC0zLjggMi45LC0yLjQgOC4yLC0xLjMgMTQuOCwtMi4yIDEwLC0xLjQgMiwtMC4zIDEuMiwwLjEgMS40LC0wLjUgMC4yLDEuMyAwLjYsMS4yIDIuMSwwLjUgMy4xLC0wLjIgMi41LC0wLjQgMi4zLC0xLjEgMS45LC0wLjYgMi40LC0wLjYgMS41LC0wLjIgMi41LDAuMyAwLjMsMi41IC0wLjcsNS41IC0wLjQsMy43IDEsNC42IDEsMi41IDIuOCwzLjkgOC4yLDYuNyAxMC42LDguMyAxMS4xLDcuOCAxNy41LDEyLjYgOS4xLDUuNCAxOC41LDkuOCAyMS42LDEwLjYgMTYuMyw3LjkgMTIuNSw1LjIgMjEuNCw5LjUgMTgsOCAxMC4zLDYuOCA5LjQsNy42IDcsMy44IFYgMjQwIGwgLTIuMSwtNy40IHogbSAtNTA3LjksLTUwLjUgLTIuNSwtMi4zIC0yLjcsLTIuOCAtMS4yLC0yLjcgLTAuNSwtMi43IDIuMiwyLjIgMi42LDMgMi42LDMuNiAxLjksMi45IC0yLjQsLTEuMiB6IG0gMTIuNyw5LjkgLTUuMiwtNCA1LDMuNSA1LDIuNyAtNC44LC0yLjIgeiBtIC0xOC45LDEwOS44IC0xLDAuNCAtMC42LC0xIC0xLjIsLTAuMyAtMS4xLC0wLjUgLTAuNiwtMC44IC0wLjYsLTAuMSAwLjUsLTEuNyAxLjMsLTEuNyAxLjIsLTEuMiAwLjYsLTAuOCAxLjEsMS44IDAuNCwxLjUgMC4zLDIuMSAtMC4zLDIuMyB6IG0gMjMsMzAuNCAwLjksLTAuNSAtMC4yLDAuOSAwLjEsMS44IDAuNywxLjcgLTAuOSwtMC4yIC0wLjYsMC42IHYgLTIuNiBsIC0wLjcsLTEuNiB6IG0gLTUuNCwtMjAuMiAwLjksLTAuNCBoIDEuNiBsIDEuNiwwLjIgMS4xLDAuOSB2IDEuNiBoIC0xLjYgbCAtMS41LDAuNyAtMS45LDEuNCB2IC0xLjEgbCAtMC40LC0xLjcgLTAuNywtMS4yIDAuOSwtMC40IHogbSAtMTAuNSwxMS42IDIuMiwwLjQgMi4yLC0wLjQgMS4yLC0wLjkgdiAxIGwgMC4yLDEuOCAtMC40LDEuNyAtMC40LDIuMyAtMS4yLDEuNSBoIC0xLjEgbCAtMC45LC0wLjYgLTAuOSwtMC42IC0xLjEsLTAuMyAtMS4yLC0wLjIgaCAtMS40IGwgMC42LC0xIC0wLjksLTEuMyBoIC0xLjIgbCAtMC4zLC0xLjMgMC41LC0xLjUgMS40LC0xLjQgMC42LC0wLjQgMC43LDAuNCAxLjQsMC44IHogbSAtMi42LC0zOC4xIDAuMywtMSAxLjQsLTAuNyAwLjYsLTAuOCAzLDAuOSAwLjgsMC44IDAuMiwxLjMgLTAuNCwyLjEgMC40LDEuMiAwLjYsMC44IC0xLDAuOSBoIC0xLjIgbCAtMC44LDAuNSAtMSwwLjIgLTEuMSwwLjMgLTEsMC45IC0wLjYsMC45IC0wLjUsLTEuNCAtMS4xLC0wLjMgaCAtMC44IGwgMC40LC0yIC0wLjUsLTEuNyAtMC40LC0yLjEgMS43LC0wLjMgMSwtMC41IHogbSAyMzUuNywtNzMuMyAtMC45LDEuMSAtMC44LDEuOCAtMC42LDEuNiAtMC4yLC0xLjEgLTAuMiwtMS4yIC0wLjksLTEuMyB2IC0xLjIgbCAwLjksLTAuOSB2IC0xLjQgbCAwLjQsMC42IDAuNSwwLjYgMC45LDAuNSAwLjgsMC4xIHYgMC44IHogbSAxNCwtMzguMyBoIDIuOCBsIDAuNCwxLjEgLTAuNSwxLjIgLTEuMiwwLjggLTEuNiwwLjUgLTAuMSwtMS45IDAuMiwtMS43IHogbSAtNS41LDExLjQgLTEuMywtMC42IC0yLjUsLTEuMSAtMi4xLC0wLjkgLTAuMywtMC43IC0wLjMsLTEuNiAtMC42LC0xLjEgLTEuMSwtMC44IC0wLjIsLTEuMyAwLjksLTAuMiAxLjYsLTAuMyAxLjQsMC4zIDEuNSwtMC40IDEuNCwtMC43IDEuOCwtMC4zIDEuNCwwLjMgMC44LDIuMyB2IDIuNiBsIC0wLjMsMi45IC0wLjUsMiAtMS42LC0wLjQgeiBtIDMuMSwxOS4zIHYgMi4zIGwgLTEuMiwwLjEgLTAuOSwwLjUgdiAtMC43IGwgLTAuMiwtMS4yIC0wLjUsLTAuOSB2IC0xLjMgbCAwLjYsMC4zIDEsMC40IDEuMiwwLjUgeiBtIC0xLjgsLTU1LjEgMC4yLC0xLjggMS4yLDAuMyAxLjcsMC4yIGggNCBsIC0xLjIsMC4xIC0yLDAuNSAtMS4yLDAuNSAtMS4zLDEuMSAtMC42LDEuMSAtMC40LDEuNiAtMC4zLC0xLjQgLTAuMSwtMi4yIHogbSA1MS40LC00NS45IC0zLjcsMS4zIC04LjEsMS4xIC05LjEsMS42IC05LjgsMS41IDUuNywtMy40IDUuMiwtMS45IDYsLTEuMiA1LjgsLTAuNCBoIDIuOCBsIDUuNCwwLjMgaCAxLjcgbCAtMS45LDEuMSB6IiBpZD0icGF0aDIiLz4NCjwvc3ZnPg==;labelBackgroundColor=none;fontColor=#59c080;editableCssRules=.*;imageBackground=none;" parent="1" vertex="1">
            <mxGeometry x="302.29" y="209.87" width="264.14" height="150.13" as="geometry" />
          </mxCell>
        </object>
        <mxCell id="lxQpbXjSUi8xi0s-LVYQ-4" value="Remote Sensing" style="ellipse;whiteSpace=wrap;html=1;fontFamily=Verdana;fillColor=#e1d5e7;strokeColor=none;strokeWidth=2;aspect=fixed;fontSize=14;fontStyle=1" parent="1" vertex="1">
          <mxGeometry x="454.36" y="368" width="120" height="120" as="geometry" />
        </mxCell>
        <mxCell id="lxQpbXjSUi8xi0s-LVYQ-5" value="Participatory Science" style="ellipse;whiteSpace=wrap;html=1;fontFamily=Verdana;fillColor=#e1d5e7;strokeColor=none;strokeWidth=2;aspect=fixed;fontSize=14;fontStyle=1" parent="1" vertex="1">
          <mxGeometry x="566.4300000000001" y="270" width="120" height="120" as="geometry" />
        </mxCell>
        <mxCell id="lxQpbXjSUi8xi0s-LVYQ-6" value="Herbarium Specimens" style="ellipse;whiteSpace=wrap;html=1;fontFamily=Verdana;fillColor=#e1d5e7;strokeColor=none;strokeWidth=2;aspect=fixed;fontSize=14;fontStyle=1" parent="1" vertex="1">
          <mxGeometry x="155" y="270" width="120" height="120" as="geometry" />
        </mxCell>
        <mxCell id="lxQpbXjSUi8xi0s-LVYQ-7" value="Data Integration" style="ellipse;whiteSpace=wrap;html=1;fontFamily=Verdana;fillColor=#e1d5e7;strokeColor=none;strokeWidth=2;aspect=fixed;fontSize=14;fontStyle=1" parent="1" vertex="1">
          <mxGeometry x="374.36" y="96" width="120" height="120" as="geometry" />
        </mxCell>
        <mxCell id="lxQpbXjSUi8xi0s-LVYQ-8" value="Distributed Experiments" style="ellipse;whiteSpace=wrap;html=1;fontFamily=Verdana;fillColor=#e1d5e7;strokeColor=none;strokeWidth=2;aspect=fixed;fontSize=14;fontStyle=1" parent="1" vertex="1">
          <mxGeometry x="540.0000000000001" y="130" width="120" height="120" as="geometry" />
        </mxCell>
        <mxCell id="lxQpbXjSUi8xi0s-LVYQ-9" value="Literature Search" style="ellipse;whiteSpace=wrap;html=1;fillColor=#e1d5e7;strokeColor=none;fontFamily=Verdana;aspect=fixed;fontSize=14;fontStyle=1" parent="1" vertex="1">
          <mxGeometry x="205" y="130" width="120" height="120" as="geometry" />
        </mxCell>
        <mxCell id="lxQpbXjSUi8xi0s-LVYQ-10" value="" style="shape=image;aspect=fixed;image=data:image/svg+xml,PHN2ZyB4bWxucz0iaHR0cDovL3d3dy53My5vcmcvMjAwMC9zdmciIHZpZXdCb3g9IjAgMCA1MTIgNTEyIj48IS0tISBGb250IEF3ZXNvbWUgRnJlZSA2LjEuMSBieSBAZm9udGF3ZXNvbWUgLSBodHRwczovL2ZvbnRhd2Vzb21lLmNvbSBMaWNlbnNlIC0gaHR0cHM6Ly9mb250YXdlc29tZS5jb20vbGljZW5zZS9mcmVlIChJY29uczogQ0MgQlkgNC4wLCBGb250czogU0lMIE9GTCAxLjEsIENvZGU6IE1JVCBMaWNlbnNlKSBDb3B5cmlnaHQgMjAyMiBGb250aWNvbnMsIEluYy4gLS0+PHBhdGggZD0iTTQ4MCAzMkgxMjhDMTEwLjMgMzIgOTYgNDYuMzMgOTYgNjR2MzM2Qzk2IDQwOC44IDg4Ljg0IDQxNiA4MCA0MTZTNjQgNDA4LjggNjQgNDAwVjk2SDMyQzE0LjMzIDk2IDAgMTEwLjMgMCAxMjh2Mjg4YzAgMzUuMzUgMjguNjUgNjQgNjQgNjRoMzg0YzM1LjM1IDAgNjQtMjguNjUgNjQtNjRWNjRDNTEyIDQ2LjMzIDQ5Ny43IDMyIDQ4MCAzMnpNMjcyIDQxNmgtOTZDMTY3LjIgNDE2IDE2MCA0MDguOCAxNjAgNDAwQzE2MCAzOTEuMiAxNjcuMiAzODQgMTc2IDM4NGg5NmM4LjgzNiAwIDE2IDcuMTYyIDE2IDE2QzI4OCA0MDguOCAyODAuOCA0MTYgMjcyIDQxNnpNMjcyIDMyMGgtOTZDMTY3LjIgMzIwIDE2MCAzMTIuOCAxNjAgMzA0QzE2MCAyOTUuMiAxNjcuMiAyODggMTc2IDI4OGg5NkMyODAuOCAyODggMjg4IDI5NS4yIDI4OCAzMDRDMjg4IDMxMi44IDI4MC44IDMyMCAyNzIgMzIwek00MzIgNDE2aC05NmMtOC44MzYgMC0xNi03LjE2NC0xNi0xNmMwLTguODM4IDcuMTY0LTE2IDE2LTE2aDk2YzguODM2IDAgMTYgNy4xNjIgMTYgMTZDNDQ4IDQwOC44IDQ0MC44IDQxNiA0MzIgNDE2ek00MzIgMzIwaC05NkMzMjcuMiAzMjAgMzIwIDMxMi44IDMyMCAzMDRDMzIwIDI5NS4yIDMyNy4yIDI4OCAzMzYgMjg4aDk2QzQ0MC44IDI4OCA0NDggMjk1LjIgNDQ4IDMwNEM0NDggMzEyLjggNDQwLjggMzIwIDQzMiAzMjB6TTQ0OCAyMDhDNDQ4IDIxNi44IDQ0MC44IDIyNCA0MzIgMjI0aC0yNTZDMTY3LjIgMjI0IDE2MCAyMTYuOCAxNjAgMjA4di05NkMxNjAgMTAzLjIgMTY3LjIgOTYgMTc2IDk2aDI1NkM0NDAuOCA5NiA0NDggMTAzLjIgNDQ4IDExMlYyMDh6Ii8+PC9zdmc+;connectable=0;movable=1;verticalLabelPosition=bottom;resizable=1;rotatable=0;cloneable=0;deletable=1;recursiveResize=0;imageBackground=none;verticalAlign=top;" parent="1" vertex="1">
          <mxGeometry x="202.29" y="106" width="60" height="60" as="geometry" />
        </mxCell>
        <mxCell id="lxQpbXjSUi8xi0s-LVYQ-11" value="" style="shape=image;aspect=fixed;image=data:image/svg+xml,PHN2ZyB4bWxucz0iaHR0cDovL3d3dy53My5vcmcvMjAwMC9zdmciIHZpZXdCb3g9IjAgMCA0NDggNTEyIj48IS0tISBGb250IEF3ZXNvbWUgRnJlZSA2LjEuMSBieSBAZm9udGF3ZXNvbWUgLSBodHRwczovL2ZvbnRhd2Vzb21lLmNvbSBMaWNlbnNlIC0gaHR0cHM6Ly9mb250YXdlc29tZS5jb20vbGljZW5zZS9mcmVlIChJY29uczogQ0MgQlkgNC4wLCBGb250czogU0lMIE9GTCAxLjEsIENvZGU6IE1JVCBMaWNlbnNlKSBDb3B5cmlnaHQgMjAyMiBGb250aWNvbnMsIEluYy4gLS0+PHBhdGggZD0iTTQ0OCA4MFYxMjhDNDQ4IDE3Mi4yIDM0Ny43IDIwOCAyMjQgMjA4QzEwMC4zIDIwOCAwIDE3Mi4yIDAgMTI4VjgwQzAgMzUuODIgMTAwLjMgMCAyMjQgMEMzNDcuNyAwIDQ0OCAzNS44MiA0NDggODB6TTM5My4yIDIxNC43QzQxMy4xIDIwNy4zIDQzMy4xIDE5Ny44IDQ0OCAxODYuMVYyODhDNDQ4IDMzMi4yIDM0Ny43IDM2OCAyMjQgMzY4QzEwMC4zIDM2OCAwIDMzMi4yIDAgMjg4VjE4Ni4xQzE0LjkzIDE5Ny44IDM0LjAyIDIwNy4zIDU0Ljg1IDIxNC43Qzk5LjY2IDIzMC43IDE1OS41IDI0MCAyMjQgMjQwQzI4OC41IDI0MCAzNDguMyAyMzAuNyAzOTMuMiAyMTQuN1YyMTQuN3pNNTQuODUgMzc0LjdDOTkuNjYgMzkwLjcgMTU5LjUgNDAwIDIyNCA0MDBDMjg4LjUgNDAwIDM0OC4zIDM5MC43IDM5My4yIDM3NC43QzQxMy4xIDM2Ny4zIDQzMy4xIDM1Ny44IDQ0OCAzNDYuMVY0MzJDNDQ4IDQ3Ni4yIDM0Ny43IDUxMiAyMjQgNTEyQzEwMC4zIDUxMiAwIDQ3Ni4yIDAgNDMyVjM0Ni4xQzE0LjkzIDM1Ny44IDM0LjAyIDM2Ny4zIDU0Ljg1IDM3NC43eiIvPjwvc3ZnPg==;connectable=0;movable=1;verticalLabelPosition=bottom;resizable=1;rotatable=0;cloneable=0;deletable=1;recursiveResize=0;imageBackground=none;verticalAlign=top;" parent="1" vertex="1">
          <mxGeometry x="434.36000000000007" y="70" width="60" height="60" as="geometry" />
        </mxCell>
        <mxCell id="lxQpbXjSUi8xi0s-LVYQ-12" value="" style="shape=image;aspect=fixed;image=data:image/svg+xml,PHN2ZyB4bWxucz0iaHR0cDovL3d3dy53My5vcmcvMjAwMC9zdmciIHZpZXdCb3g9IjAgMCA1MTIgNTEyIj48IS0tISBGb250IEF3ZXNvbWUgRnJlZSA2LjEuMSBieSBAZm9udGF3ZXNvbWUgLSBodHRwczovL2ZvbnRhd2Vzb21lLmNvbSBMaWNlbnNlIC0gaHR0cHM6Ly9mb250YXdlc29tZS5jb20vbGljZW5zZS9mcmVlIChJY29uczogQ0MgQlkgNC4wLCBGb250czogU0lMIE9GTCAxLjEsIENvZGU6IE1JVCBMaWNlbnNlKSBDb3B5cmlnaHQgMjAyMiBGb250aWNvbnMsIEluYy4gLS0+PHBhdGggZD0iTTM4MC42IDM2NS42QzQwMS4xIDM3OS45IDQxNiA0MDQuMyA0MTYgNDMyQzQxNiA0NzYuMiAzODAuMiA1MTIgMzM2IDUxMkMyOTEuOCA1MTIgMjU2IDQ3Ni4yIDI1NiA0MzJDMjU2IDQyMy42IDI1Ny4zIDQxNS40IDI1OS43IDQwNy44TDExNC4xIDI4MC40QzEwMy44IDI4NS4zIDkyLjIxIDI4OCA4MCAyODhDMzUuODIgMjg4IDAgMjUyLjIgMCAyMDhDMCAxNjMuOCAzNS44MiAxMjggODAgMTI4QzEwMS45IDEyOCAxMjEuNyAxMzYuOCAxMzYuMiAxNTEuMUwzMjAgNzcuNTJDMzIxLjMgMzQuNDggMzU2LjYgMCA0MDAgMEM0NDQuMiAwIDQ4MCAzNS44MiA0ODAgODBDNDgwIDExNy45IDQ1My43IDE0OS42IDQxOC40IDE1Ny45TDM4MC42IDM2NS42ek0xNTYuMyAyMzIuMkwzMDEuOSAzNTkuNkMzMDYuOSAzNTcuMyAzMTIuMSAzNTUuNCAzMTcuNiAzNTQuMUwzNTUuNCAxNDYuNEMzNTEuMiAxNDMuNiAzNDcuNCAxNDAuNCAzNDMuOCAxMzYuOUwxNTkuMSAyMTAuNUMxNTkuNyAyMTggMTU4LjUgMjI1LjMgMTU2LjMgMjMyLjJWMjMyLjJ6Ii8+PC9zdmc+;connectable=0;movable=1;verticalLabelPosition=bottom;resizable=1;rotatable=0;cloneable=0;deletable=1;recursiveResize=0;imageBackground=none;verticalAlign=top;" parent="1" vertex="1">
          <mxGeometry x="540" y="106" width="60" height="60" as="geometry" />
        </mxCell>
        <mxCell id="lxQpbXjSUi8xi0s-LVYQ-15" value="" style="shape=image;aspect=fixed;image=data:image/svg+xml,PHN2ZyB4bWxucz0iaHR0cDovL3d3dy53My5vcmcvMjAwMC9zdmciIHZpZXdCb3g9IjAgMCA1MTIgNTEyIj48IS0tISBGb250IEF3ZXNvbWUgRnJlZSA2LjEuMSBieSBAZm9udGF3ZXNvbWUgLSBodHRwczovL2ZvbnRhd2Vzb21lLmNvbSBMaWNlbnNlIC0gaHR0cHM6Ly9mb250YXdlc29tZS5jb20vbGljZW5zZS9mcmVlIChJY29uczogQ0MgQlkgNC4wLCBGb250czogU0lMIE9GTCAxLjEsIENvZGU6IE1JVCBMaWNlbnNlKSBDb3B5cmlnaHQgMjAyMiBGb250aWNvbnMsIEluYy4gLS0+PHBhdGggZD0iTTUwMi44IDI2NC4xbC04MC4zNy04MC4zN2w0Ny44Ny00Ny44OGMxMy0xMy4xMiAxMy0zNC4zNyAwLTQ3LjVsLTQ3LjUtNDcuNWMtMTMuMTItMTMuMTItMzQuMzgtMTMuMTItNDcuNSAwbC00Ny44OCA0Ny44OEwyNDcuMSA5LjI1QzI0MSAzLjM3NSAyMzIuOSAwIDIyNC41IDBjLTguNSAwLTE2LjYyIDMuMzc1LTIyLjUgOS4yNWwtOTYuNzUgOTYuNzVjLTEyLjM4IDEyLjUtMTIuMzggMzIuNjIgMCA0NS4xMkwxODUuNSAyMzEuNUwxNzUuOCAyNDEuNGMtNTQtMjQuNS0xMTYuMy0yMi41LTE2OC41IDUuMzc1Yy04LjQ5OCA0LjYyNS05LjYyMyAxNi4zOC0yLjg3MyAyMy4yNWwxMDcuNiAxMDcuNWwtMTcuODggMTcuNzVjLTIuNjI1LS43NS01LTEuNjI1LTcuNzUtMS42MjVjLTE3Ljc1IDAtMzIgMTQuMzgtMzIgMzJjMCAxNy43NSAxNC4yNSAzMiAzMiAzMmMxNy42MiAwIDMyLTE0LjI1IDMyLTMyYzAtMi43NS0uODc1LTUuMTI1LTEuNjI1LTcuNzVsMTcuNzUtMTcuODhsMTA3LjYgMTA3LjZjNi43NSA2Ljc1IDE4LjYyIDUuNjI1IDIzLjEyLTIuODc1YzI3Ljg4LTUyLjI1IDI5Ljg4LTExNC41IDUuMzc1LTE2OC41bDEwLTkuODczbDgwLjI1IDgwLjM2YzEyLjUgMTIuMzggMzIuNjIgMTIuMzggNDQuMSAwbDk2Ljc1LTk2Ljc1QzUwOC42IDMwNC4xIDUxMiAyOTUuMSA1MTIgMjg3LjVDNTEyIDI3OS4xIDUwOC42IDI3MC4xIDUwMi44IDI2NC4xek0yMTkuNSAxOTcuNEwxNTAuNiAxMjguNWw3My44Ny03My43NWw2OC44NiA2OC44OEwyMTkuNSAxOTcuNHpNMzgzLjUgMzYxLjRMMzE0LjYgMjkyLjVsNzMuNzUtNzMuODhsNjguODggNjguODdMMzgzLjUgMzYxLjR6Ii8+PC9zdmc+;connectable=0;movable=1;verticalLabelPosition=bottom;resizable=1;rotatable=0;cloneable=0;deletable=1;recursiveResize=0;imageBackground=none;verticalAlign=top;" parent="1" vertex="1">
          <mxGeometry x="514.36" y="450" width="60" height="60" as="geometry" />
        </mxCell>
        <mxCell id="lxQpbXjSUi8xi0s-LVYQ-16" value="" style="shape=image;aspect=fixed;image=data:image/svg+xml,PHN2ZyB4bWxucz0iaHR0cDovL3d3dy53My5vcmcvMjAwMC9zdmciIHZpZXdCb3g9IjAgMCA1MTIgNTEyIj48IS0tISBGb250IEF3ZXNvbWUgRnJlZSA2LjEuMSBieSBAZm9udGF3ZXNvbWUgLSBodHRwczovL2ZvbnRhd2Vzb21lLmNvbSBMaWNlbnNlIC0gaHR0cHM6Ly9mb250YXdlc29tZS5jb20vbGljZW5zZS9mcmVlIChJY29uczogQ0MgQlkgNC4wLCBGb250czogU0lMIE9GTCAxLjEsIENvZGU6IE1JVCBMaWNlbnNlKSBDb3B5cmlnaHQgMjAyMiBGb250aWNvbnMsIEluYy4gLS0+PHBhdGggZD0iTTUxMiAxNjUuNGMwIDEyNy45LTcwLjA1IDIzNS4zLTE3NS4zIDI3MC4xYy0yMC4wNCA3LjkzOC00MS44MyAxMi40Ni02NC42OSAxMi40NmMtNjQuOSAwLTEyNS4yLTM2LjUxLTE1NS43LTk0LjQ3Yy01NC4xMyA0OS45My02OC43MSAxMDctNjguOTYgMTA4LjFDNDQuNzIgNDcyLjYgMzQuODcgNDgwIDI0LjAyIDQ4MGMtMS44NDQgMC0zLjcyNy0uMjE4Ny01LjYwMi0uNjU2MmMtMTIuODktMy4wOTgtMjAuODQtMTYuMDgtMTcuNzUtMjguOTZjOS41OTgtMzkuNSA5MC40Ny0yMjYuNCAzMzUuMy0yMjYuNEMzNDQuOCAyMjQgMzUyIDIxNi44IDM1MiAyMDhTMzQ0LjggMTkyIDMzNiAxOTJDMjI4LjYgMTkyIDE1MSAyMjYuNiA5Ni4yOSAyNjcuNmMuMTkzNC0xMC44MiAxLjI0Mi0yMS44NCAzLjUzNS0zMy4wNWMxMy40Ny02NS44MSA2Ni4wNC0xMTkgMTMxLjQtMTM0LjJjMjguMzMtNi41NjIgNTUuNjgtNi4wMTMgODAuOTMtLjAwNTRjNTYgMTMuMzIgMTE4LjItNy40MTIgMTQ5LjMtNjEuMjRjNS42NjQtOS44MjggMjAuMDItOS41MTYgMjQuNjYgLjgyODJDNTAyLjcgNzYuNzYgNTEyIDEyMS45IDUxMiAxNjUuNHoiLz48L3N2Zz4=;connectable=0;movable=1;verticalLabelPosition=bottom;resizable=1;rotatable=0;cloneable=0;deletable=1;recursiveResize=0;imageBackground=none;verticalAlign=top;" parent="1" vertex="1">
          <mxGeometry x="215" y="348" width="60" height="60" as="geometry" />
        </mxCell>
        <mxCell id="lxQpbXjSUi8xi0s-LVYQ-17" value="" style="shape=image;aspect=fixed;image=data:image/svg+xml,PHN2ZyB4bWxucz0iaHR0cDovL3d3dy53My5vcmcvMjAwMC9zdmciIHZpZXdCb3g9IjAgMCA2NDAgNTEyIj48IS0tISBGb250IEF3ZXNvbWUgRnJlZSA2LjEuMSBieSBAZm9udGF3ZXNvbWUgLSBodHRwczovL2ZvbnRhd2Vzb21lLmNvbSBMaWNlbnNlIC0gaHR0cHM6Ly9mb250YXdlc29tZS5jb20vbGljZW5zZS9mcmVlIChJY29uczogQ0MgQlkgNC4wLCBGb250czogU0lMIE9GTCAxLjEsIENvZGU6IE1JVCBMaWNlbnNlKSBDb3B5cmlnaHQgMjAyMiBGb250aWNvbnMsIEluYy4gLS0+PHBhdGggZD0iTTE4NCA4OEMxODQgMTE4LjkgMTU4LjkgMTQ0IDEyOCAxNDRDOTcuMDcgMTQ0IDcyIDExOC45IDcyIDg4QzcyIDU3LjA3IDk3LjA3IDMyIDEyOCAzMkMxNTguOSAzMiAxODQgNTcuMDcgMTg0IDg4ek0yMDguNCAxOTYuM0MxNzguNyAyMjIuNyAxNjAgMjYxLjIgMTYwIDMwNEMxNjAgMzM4LjMgMTcxLjEgMzY5LjggMTkyIDM5NC41VjQxNkMxOTIgNDMzLjcgMTc3LjcgNDQ4IDE2MCA0NDhIOTZDNzguMzMgNDQ4IDY0IDQzMy43IDY0IDQxNlYzODkuMkMyNi4xNiAzNzEuMiAwIDMzMi43IDAgMjg4QzAgMjI2LjEgNTAuMTQgMTc2IDExMiAxNzZIMTQ0QzE2Ny4xIDE3NiAxOTAuMiAxODMuNSAyMDguNCAxOTYuM1YxOTYuM3pNNjQgMjQ1LjdDNTQuMDQgMjU2LjkgNDggMjcxLjggNDggMjg4QzQ4IDMwNC4yIDU0LjA0IDMxOS4xIDY0IDMzMC4zVjI0NS43ek00NDggNDE2VjM5NC41QzQ2OCAzNjkuOCA0ODAgMzM4LjMgNDgwIDMwNEM0ODAgMjYxLjIgNDYxLjMgMjIyLjcgNDMxLjYgMTk2LjNDNDQ5LjggMTgzLjUgNDcyIDE3NiA0OTYgMTc2SDUyOEM1ODkuOSAxNzYgNjQwIDIyNi4xIDY0MCAyODhDNjQwIDMzMi43IDYxMy44IDM3MS4yIDU3NiAzODkuMlY0MTZDNTc2IDQzMy43IDU2MS43IDQ0OCA1NDQgNDQ4SDQ4MEM0NjIuMyA0NDggNDQ4IDQzMy43IDQ0OCA0MTZ6TTU3NiAzMzAuM0M1ODUuMSAzMTkuMSA1OTIgMzA0LjIgNTkyIDI4OEM1OTIgMjcxLjggNTg1LjEgMjU2LjkgNTc2IDI0NS43VjMzMC4zek01NjggODhDNTY4IDExOC45IDU0Mi45IDE0NCA1MTIgMTQ0QzQ4MS4xIDE0NCA0NTYgMTE4LjkgNDU2IDg4QzQ1NiA1Ny4wNyA0ODEuMSAzMiA1MTIgMzJDNTQyLjkgMzIgNTY4IDU3LjA3IDU2OCA4OHpNMjU2IDk2QzI1NiA2MC42NSAyODQuNyAzMiAzMjAgMzJDMzU1LjMgMzIgMzg0IDYwLjY1IDM4NCA5NkMzODQgMTMxLjMgMzU1LjMgMTYwIDMyMCAxNjBDMjg0LjcgMTYwIDI1NiAxMzEuMyAyNTYgOTZ6TTQ0OCAzMDRDNDQ4IDM0OC43IDQyMS44IDM4Ny4yIDM4NCA0MDUuMlY0NDhDMzg0IDQ2NS43IDM2OS43IDQ4MCAzNTIgNDgwSDI4OEMyNzAuMyA0ODAgMjU2IDQ2NS43IDI1NiA0NDhWNDA1LjJDMjE4LjIgMzg3LjIgMTkyIDM0OC43IDE5MiAzMDRDMTkyIDI0Mi4xIDI0Mi4xIDE5MiAzMDQgMTkySDMzNkMzOTcuOSAxOTIgNDQ4IDI0Mi4xIDQ0OCAzMDR6TTI1NiAzNDYuM1YyNjEuN0MyNDYgMjcyLjkgMjQwIDI4Ny44IDI0MCAzMDRDMjQwIDMyMC4yIDI0NiAzMzUuMSAyNTYgMzQ2LjN6TTM4NCAyNjEuN1YzNDYuM0MzOTMuMSAzMzUgNDAwIDMyMC4yIDQwMCAzMDRDNDAwIDI4Ny44IDM5My4xIDI3Mi45IDM4NCAyNjEuN3oiLz48L3N2Zz4=;connectable=0;movable=1;verticalLabelPosition=bottom;resizable=1;rotatable=0;cloneable=0;deletable=1;recursiveResize=0;imageBackground=none;verticalAlign=top;" parent="1" vertex="1">
          <mxGeometry x="626.4300000000001" y="348" width="60" height="60" as="geometry" />
        </mxCell>
        <mxCell id="lxQpbXjSUi8xi0s-LVYQ-20" value="Trait&lt;br&gt;Imputation" style="ellipse;whiteSpace=wrap;html=1;fontFamily=Verdana;fillColor=#e1d5e7;strokeColor=none;strokeWidth=2;aspect=fixed;fontSize=14;fontStyle=1" parent="1" vertex="1">
          <mxGeometry x="292.2900000000001" y="368" width="120" height="120" as="geometry" />
        </mxCell>
        <mxCell id="lxQpbXjSUi8xi0s-LVYQ-22" value="" style="shape=image;aspect=fixed;image=data:image/svg+xml,PHN2ZyB4bWxucz0iaHR0cDovL3d3dy53My5vcmcvMjAwMC9zdmciIHZpZXdCb3g9IjAgMCA1MTIgNTEyIj48IS0tISBGb250IEF3ZXNvbWUgRnJlZSA2LjEuMSBieSBAZm9udGF3ZXNvbWUgLSBodHRwczovL2ZvbnRhd2Vzb21lLmNvbSBMaWNlbnNlIC0gaHR0cHM6Ly9mb250YXdlc29tZS5jb20vbGljZW5zZS9mcmVlIChJY29uczogQ0MgQlkgNC4wLCBGb250czogU0lMIE9GTCAxLjEsIENvZGU6IE1JVCBMaWNlbnNlKSBDb3B5cmlnaHQgMjAyMiBGb250aWNvbnMsIEluYy4gLS0+PHBhdGggZD0iTTMyIDMyQzQ5LjY3IDMyIDY0IDQ2LjMzIDY0IDY0VjQwMEM2NCA0MDguOCA3MS4xNiA0MTYgODAgNDE2SDQ4MEM0OTcuNyA0MTYgNTEyIDQzMC4zIDUxMiA0NDhDNTEyIDQ2NS43IDQ5Ny43IDQ4MCA0ODAgNDgwSDgwQzM1LjgyIDQ4MCAwIDQ0NC4yIDAgNDAwVjY0QzAgNDYuMzMgMTQuMzMgMzIgMzIgMzJ6TTEyOCAxMjhDMTI4IDExMC4zIDE0Mi4zIDk2IDE2MCA5NkgyNTZDMjczLjcgOTYgMjg4IDExMC4zIDI4OCAxMjhDMjg4IDE0NS43IDI3My43IDE2MCAyNTYgMTYwSDE2MEMxNDIuMyAxNjAgMTI4IDE0NS43IDEyOCAxMjh6TTM1MiAxOTJDMzY5LjcgMTkyIDM4NCAyMDYuMyAzODQgMjI0QzM4NCAyNDEuNyAzNjkuNyAyNTYgMzUyIDI1NkgyMjRDMjA2LjMgMjU2IDE5MiAyNDEuNyAxOTIgMjI0QzE5MiAyMDYuMyAyMDYuMyAxOTIgMjI0IDE5MkgzNTJ6TTQ0OCAyODhDNDY1LjcgMjg4IDQ4MCAzMDIuMyA0ODAgMzIwQzQ4MCAzMzcuNyA0NjUuNyAzNTIgNDQ4IDM1MkgzODRDMzY2LjMgMzUyIDM1MiAzMzcuNyAzNTIgMzIwQzM1MiAzMDIuMyAzNjYuMyAyODggMzg0IDI4OEg0NDh6Ii8+PC9zdmc+;connectable=0;movable=1;verticalLabelPosition=bottom;resizable=1;rotatable=0;cloneable=0;deletable=1;recursiveResize=0;imageBackground=none;verticalAlign=top;" parent="1" vertex="1">
          <mxGeometry x="282.2900000000001" y="440" width="60" height="60" as="geometry" />
        </mxCell>
      </root>
    </mxGraphModel>
  </diagram>
</mxfile>
